<?xml version="1.0" encoding="UTF-8" standalone="no"?>
<!-- Created with Inkscape (http://www.inkscape.org/) -->

<svg
   xmlns:dc="http://purl.org/dc/elements/1.1/"
   xmlns:cc="http://creativecommons.org/ns#"
   xmlns:rdf="http://www.w3.org/1999/02/22-rdf-syntax-ns#"
   xmlns:svg="http://www.w3.org/2000/svg"
   xmlns="http://www.w3.org/2000/svg"
   xmlns:sodipodi="http://sodipodi.sourceforge.net/DTD/sodipodi-0.dtd"
   xmlns:inkscape="http://www.inkscape.org/namespaces/inkscape"
   id="svg2"
   version="1.1"
   inkscape:version="0.91 r13725"
   width="130.8286"
   height="155.05096"
   viewBox="0 0 130.8286 155.05096"
   sodipodi:docname="icon.svg">
  <metadata
     id="metadata8">
    <rdf:RDF>
      <cc:Work
         rdf:about="">
        <dc:format>image/svg+xml</dc:format>
        <dc:type
           rdf:resource="http://purl.org/dc/dcmitype/StillImage" />
        <dc:title></dc:title>
      </cc:Work>
    </rdf:RDF>
  </metadata>
  <defs
     id="defs6" />
  <sodipodi:namedview
     pagecolor="#ffffff"
     bordercolor="#666666"
     borderopacity="1"
     objecttolerance="10"
     gridtolerance="10"
     guidetolerance="10"
     inkscape:pageopacity="0"
     inkscape:pageshadow="2"
     inkscape:window-width="1366"
     inkscape:window-height="717"
     id="namedview4"
     showgrid="false"
     inkscape:zoom="3.0199134"
     inkscape:cx="84.395677"
     inkscape:cy="82.095886"
     inkscape:window-x="0"
     inkscape:window-y="0"
     inkscape:window-maximized="1"
     inkscape:current-layer="svg2"
     fit-margin-top="0"
     fit-margin-left="0"
     fit-margin-right="0"
     fit-margin-bottom="0"
     showguides="false" />
  <path
     style="fill:#ffffff"
     d="m 36.137292,2.1782718 c -9.047226,-0.030927 -12.446713,0.850874 -16.595703,4.3007814 -3.976826,3.306752 -4.492188,4.2093198 -4.492188,7.8710938 0,3.663415 1.694025,8.155519 5.15625,13.679688 2.468026,3.937873 2.725545,5.613661 1.470703,9.585937 -1.537182,4.866037 -6.647075,11.0982 -13.7636712,16.787109 -3.7271006,2.979401 -4.3367203,3.807821 -4.5039063,6.119141 -0.108561,1.50084 -0.00456,1.992235 0.671875,3.146485 0.44085,0.752259 1.4770903,1.862146 2.3007813,2.466796 l 1.4960937,1.09961 3.2519525,-0.07031 c 2.886135,-0.0618 3.346627,0.0026 4.123047,0.578125 0.8687,0.64388 0.931527,0.83683 1.511719,4.63086 0.08154,0.53322 0.476161,1.454321 0.876953,2.044922 0.7232,1.065689 0.72495,1.078674 0.148437,1.953124 -0.406026,0.61586 -0.580631,1.437536 -0.582031,2.728516 -0.0019,1.75739 0.05346,1.893503 1.150391,2.814453 l 1.152344,0.96875 -1.626954,1.720703 c -2.059577,2.17769 -2.817371,3.821027 -2.826171,6.128907 -0.01096,2.8893 1.052159,4.482393 4.238281,6.345703 1.94748,1.13893 2.513235,1.162948 8.068359,0.324218 2.285681,-0.345099 6.234652,-0.71111 8.775391,-0.8125 5.064537,-0.202119 7.430836,0.199516 9.11914,1.546876 0.45833,0.365779 1.696788,1.149607 2.751954,1.742187 2.253829,1.265763 3.984997,3.367293 4.982422,6.046873 0.939063,2.52277 0.907825,7.42313 -0.07227,11.48242 -1.331023,5.51277 -2.326318,7.9092 -5.052734,12.16797 -5.497766,8.58774 -8.262903,14.06065 -8.69336,17.20117 -0.207225,1.51187 0.526768,4.49161 1.296875,5.26172 0.738637,0.73863 2.403698,0.5986 3.460938,-0.29101 0.9104,-0.76605 3.138047,-4.74221 4.308593,-7.69336 0.335778,-0.84655 2.181879,-3.64465 4.103516,-6.2168 4.351218,-5.82418 6.559967,-9.35822 9.773438,-15.64063 3.237834,-6.33005 3.552982,-7.81397 3.333984,-15.69922 -0.232237,-8.361885 -1.908452,-16.295535 -5.625,-26.632805 -2.338312,-6.50382 -4.316709,-13.889047 -4.621094,-17.248047 -0.18744,-2.0685 -0.113351,-2.58514 0.748047,-5.15625 2.042073,-6.09518 5.394991,-9.415807 10.316406,-10.216797 4.144855,-0.67459 12.223698,1.854253 19.496094,6.101563 1.207409,0.70517 2.501744,1.28125 2.876953,1.28125 0.375208,0 2.577638,-0.946839 4.894531,-2.105469 7.273092,-3.63709 12.003422,-4.346416 15.675792,-2.347656 4.02031,2.18813 6.87328,7.674951 7.87891,15.150391 0.18909,1.40556 0.14232,1.640853 -0.35157,1.814453 -6.02798,2.11877 -8.46773,3.538513 -11.81054,6.876953 -2.7398,2.73621 -4.15252,5.020467 -5.990251,9.685547 -0.757363,1.92248 -0.82826,2.435281 -0.7207,5.113281 0.108,2.68884 0.22764,3.19578 1.25195,5.25 0.623731,1.25083 1.986851,3.244517 3.029311,4.429687 3.34353,3.801219 3.65745,4.692769 2.15234,6.134759 -1.13724,1.08955 -1.63463,2.27767 -1.50781,3.60352 0.0922,0.96417 0.18435,1.04296 1.30664,1.13476 4.02245,0.32886 7.37915,-3.79512 6.83789,-8.40038 -0.30865,-2.626112 -2.07708,-6.09609 -3.30664,-6.48633 -0.98028,-0.31113 -0.66784,-0.636829 1.56836,-1.636719 2.67794,-1.1974 6.87685,-2.306273 7.71875,-2.039063 0.99168,0.31474 1.28642,1.559001 1.0586,4.457032 -0.39594,5.03628 -2.58999,16.23651 -3.80665,19.42578 l -0.2832,0.73828 -0.22265,-0.85547 c -0.30927,-1.18798 -0.98323,-1.45313 -3.6875,-1.45313 -2.08924,0 -2.5689,0.11668 -4.37696,1.07617 -2.09701,1.11284 -2.86133,1.3134 -2.86133,0.75196 0,-0.17883 -0.64254,-0.60884 -1.42968,-0.95703 -1.19879,-0.53023 -1.8877,-0.61131 -4.23439,-0.50196 l -2.800781,0.12891 -6.925781,3.38672 c -3.809468,1.86226 -7.168553,3.62959 -7.464844,3.92774 -0.347024,0.3492 -0.539063,1.01835 -0.539063,1.8789 0,1.12542 0.155203,1.46667 0.986329,2.16602 0.868232,0.73057 1.15345,0.80505 2.384765,0.625 5.040255,-0.73701 6.647464,-0.48267 8.816406,1.39453 2.061922,1.78458 4.297506,2.50129 8.283209,2.65625 3.30712,0.12859 4.49682,-0.0564 8.41602,-1.30664 l 0.72266,-0.23047 -0.6836,1.35156 c -0.37561,0.7434 -1.44987,2.64228 -2.38672,4.21875 -1.94866,3.27908 -2.52063,3.68817 -6.39063,4.5625 -2.065947,0.46675 -4.118808,0.56103 -13.166017,0.61133 -5.894606,0.0328 -11.054616,0.1446 -11.466796,0.24805 -0.675268,0.16948 -0.747941,0.34789 -0.744141,1.79883 0.0083,3.16553 -0.273094,2.99609 4.957031,2.99609 2.519898,0 4.580078,0.0898 4.580078,0.19922 0,0.10942 -0.622871,0.86516 -1.384765,1.67969 -1.210887,1.29454 -1.384766,1.65246 -1.384766,2.8457 0,1.21407 0.08945,1.38738 0.802734,1.5664 0.441104,0.11025 1.410396,0.10961 2.154297,-0.002 1.233356,-0.18495 1.588562,-0.46893 4.033203,-3.21484 l 2.679688,-3.00977 6.939453,-0.21289 c 7.864831,-0.24103 8.348101,-0.36362 11.076181,-2.8164 5.3237,-4.78647 9.60006,-14.18512 13.14844,-28.89649 0.77827,-3.22669 0.82507,-3.89642 1.00391,-14.218747 l 0.1875,-10.833984 2.63281,-2.710938 c 3.42745,-3.53208 3.98047,-4.354985 3.98047,-5.916015 l 0,-1.259766 -1.54688,0 c -1.05253,0 -2.18134,0.288687 -3.53906,0.904297 -1.7148,0.77753 -1.99433,0.831406 -1.98633,0.384766 0.0891,-4.7979 0.68838,-10.580465 1.37695,-13.296875 3.6272,-14.3092 3.79323,-28.866749 0.42774,-37.59375 -3.11286,-8.071879 -10.20472,-13.618988 -19.66797,-15.384719 -1.10051,-0.205342 -2.07652,-0.488769 -2.16992,-0.628906 -0.46179,-0.692697 -4.441054,-0.968938 -17.070321,-1.183594 L 72.152917,10.07085 69.063073,8.9634282 C 65.578725,7.7143582 58.251478,5.7810476 48.912682,3.6450688 L 42.602135,2.2017098 36.137292,2.1782718 Z M 1.3970578,24.541553 c -0.028454,-2.08673 -0.048828,15.696771 -0.048828,47.632813 0,42.581394 0.036438,60.001634 0.080078,38.710934 0.04364,-21.290694 0.04364,-56.131178 0,-77.421872 -0.01091,-5.322673 -0.021765,-8.226298 -0.03125,-8.921875 z m 0.6152344,2.392578 c -0.028404,-2.211186 -0.046875,16.63188 -0.046875,50.472657 0,45.121042 0.034555,63.580052 0.078125,41.019532 0.04357,-22.560518 0.04357,-59.476596 0,-82.03711 -0.01089,-5.64013 -0.021782,-8.718016 -0.03125,-9.455079 z M 75.231042,71.416553 c -3.703209,-0.0059 -5.145451,0.421474 -7.15625,2.121094 -0.912376,0.77119 -1,1.000676 -1,2.597656 0,1.11319 0.180312,2.010088 0.496093,2.460938 l 0.496094,0.708984 5.738282,-0.21875 c 6.449505,-0.24448 8.791523,0.105709 10.757812,1.605469 0.579609,0.44209 1.626384,0.982242 2.326172,1.201172 1.627654,0.50928 4.271731,0.548582 4.75,0.07031 0.670679,-0.67068 0.421055,-2.762565 -0.527344,-4.416015 -0.831763,-1.45011 -1.115494,-1.661612 -4.230469,-3.138672 -4.852586,-2.30099 -7.519756,-2.985188 -11.65039,-2.992188 z m 41.097668,5.990235 c 0.79594,0 1.31771,1.060164 1.07226,2.177734 -0.27633,1.25811 -1.80816,2.308311 -3.99805,2.744141 -1.01585,0.20218 -3.12725,0.969418 -4.69336,1.705078 -1.56612,0.73566 -2.84765,1.261569 -2.84765,1.167969 0,-0.09356 0.48658,-0.833362 1.08203,-1.644532 1.97129,-2.68544 7.25807,-6.15039 9.38477,-6.15039 z M 63.21737,80.2271 c -0.343758,0.05017 -0.453125,0.246033 -0.453125,0.576172 0,2.40421 2.345543,4.492659 8.466797,7.542969 4.211292,2.09855 7.124439,3.111465 10.464843,3.634766 1.442526,0.22598 13.172858,0.01811 13.775391,-0.244141 0.356514,-0.15516 0.539063,-0.577257 0.539063,-1.248047 0,-0.83423 -0.294312,-1.283796 -1.669922,-2.541016 -0.919266,-0.84016 -2.597398,-2.188943 -3.728516,-2.996093 l -2.05664,-1.466797 -2.740235,0.392578 C 81.101782,84.553061 75.142159,83.697848 67.457604,81.244678 65.01313,80.464322 63.7903,80.143478 63.21737,80.2271 Z m 49.95704,38.79297 -0.85352,2.20508 c -0.46948,1.21259 -1.21035,2.96528 -1.64648,3.89648 l -0.79297,1.69336 0.1875,-1.53906 c 0.31075,-2.5566 0.89285,-4.04325 2.02734,-5.17773 l 1.07813,-1.07813 z m -12.78711,1.83203 c 1.22088,-0.0316 2.36728,0.0487 2.70117,0.25977 0.64267,0.40631 0.0736,0.9089 -1.42187,1.25586 -1.739746,0.40364 -3.201787,0.33177 -4.423839,-0.2168 l -1.078126,-0.48242 1.078126,-0.4043 c 0.628894,-0.23604 1.923652,-0.38047 3.144539,-0.41211 z m -99.0097735,29.75 c -0.042255,-0.0705 -0.072266,0.53003 -0.072266,1.60938 0,1.43913 0.052377,2.02816 0.1171876,1.30859 0.06481,-0.71956 0.06481,-1.89762 0,-2.61719 -0.016202,-0.17989 -0.030837,-0.27727 -0.044922,-0.30078 z m 0,5.23242 c -0.042255,-0.0705 -0.072266,0.53003 -0.072266,1.60938 0,1.43913 0.052377,2.02816 0.1171876,1.30859 0.06481,-0.71956 0.06481,-1.89567 0,-2.61523 -0.016202,-0.17989 -0.030837,-0.27923 -0.044922,-0.30274 z"
     id="path4180"
     inkscape:connector-curvature="0" />
</svg>
