<?xml version="1.0" standalone="no"?>
<!DOCTYPE svg PUBLIC "-//W3C//DTD SVG 20010904//EN"
 "http://www.w3.org/TR/2001/REC-SVG-20010904/DTD/svg10.dtd">
<svg version="1.0" xmlns="http://www.w3.org/2000/svg"
 width="620.000000pt" height="620.000000pt" viewBox="0 0 620.000000 620.000000"
 preserveAspectRatio="xMidYMid meet">
<metadata>
Created by potrace 1.11, written by Peter Selinger 2001-2013
</metadata>
<g transform="translate(0.000000,620.000000) scale(0.100000,-0.100000)"
fill="#000000" stroke="none">
<path d="M1807 6114 c-1 -1 -49 -5 -107 -9 -157 -10 -181 -14 -270 -47 -49
-17 -147 -71 -160 -87 -3 -3 -23 -19 -45 -36 -57 -42 -132 -124 -152 -165 -26
-53 -23 -212 6 -315 22 -79 110 -271 154 -336 101 -151 123 -228 100 -354 -4
-22 -7 -42 -8 -45 -2 -18 -51 -128 -62 -141 -7 -8 -13 -19 -13 -23 0 -11 -79
-126 -128 -186 -65 -79 -234 -245 -326 -320 -174 -142 -201 -178 -209 -272 -7
-89 41 -171 139 -238 38 -27 47 -29 140 -28 167 1 170 1 202 -31 16 -16 29
-35 30 -43 0 -7 3 -24 6 -38 2 -14 7 -43 11 -65 3 -21 19 -66 35 -98 29 -57
29 -60 13 -91 -9 -17 -18 -35 -19 -41 -5 -25 -6 -53 -5 -94 1 -38 7 -49 45
-85 l45 -41 -55 -60 c-77 -86 -75 -82 -100 -144 -27 -67 -27 -166 1 -224 23
-49 100 -118 167 -149 58 -28 131 -30 258 -9 36 5 92 13 125 16 33 3 74 8 90
10 17 2 104 6 195 9 176 6 251 -3 309 -35 71 -38 201 -125 232 -154 69 -66
126 -176 137 -265 12 -103 3 -267 -20 -355 -5 -22 -12 -48 -13 -57 -25 -129
-90 -283 -181 -430 -225 -365 -328 -562 -350 -671 -16 -73 4 -193 38 -240 26
-35 112 -28 149 12 21 22 66 93 67 105 0 5 5 12 10 15 5 3 26 42 46 86 57 122
93 183 184 310 16 22 66 92 112 155 45 63 85 122 88 130 3 8 9 17 13 20 16 12
146 242 219 390 107 216 119 272 115 527 -3 169 -13 331 -21 344 -2 4 -6 31
-9 60 -4 30 -9 61 -11 69 -3 8 -8 33 -10 55 -3 22 -9 51 -14 65 -5 14 -11 39
-14 55 -6 38 -42 174 -57 212 -6 15 -10 29 -10 31 1 1 1 3 1 5 0 1 -32 97 -71
212 -39 116 -72 215 -73 220 -4 16 -45 156 -56 190 -5 17 -18 69 -29 117 -55
234 -48 310 47 507 110 228 290 324 532 284 58 -9 64 -10 73 -13 9 -3 15 -5
52 -15 123 -32 251 -86 432 -181 168 -88 164 -88 300 -24 48 23 107 51 131 61
23 10 62 28 86 39 82 36 207 63 296 64 75 0 93 -4 151 -30 73 -35 143 -99 194
-179 38 -58 104 -214 110 -255 1 -14 4 -25 5 -25 2 0 5 -17 15 -70 19 -115 21
-135 16 -143 -6 -9 -64 -41 -78 -43 -28 -4 -152 -58 -194 -85 -21 -13 -42 -24
-45 -24 -13 0 -139 -109 -194 -167 -31 -32 -72 -83 -92 -113 -31 -48 -104
-188 -109 -208 -1 -4 -6 -18 -11 -32 -33 -83 -42 -201 -23 -309 9 -51 47 -128
98 -203 44 -63 55 -78 119 -152 15 -17 38 -50 50 -73 20 -37 21 -44 8 -67 -7
-14 -21 -34 -30 -44 -35 -38 -52 -74 -55 -116 -4 -57 12 -71 76 -68 90 3 173
63 219 158 47 97 29 268 -39 362 -12 17 -21 34 -21 39 0 5 -13 17 -30 26 -16
10 -30 22 -30 27 0 12 89 54 180 84 97 32 125 39 180 40 40 1 46 -2 58 -27 17
-35 16 -163 -1 -262 -6 -37 -21 -127 -22 -140 -2 -12 -16 -91 -21 -120 -3 -11
-7 -33 -10 -50 -4 -25 -45 -203 -58 -255 -16 -62 -27 -97 -36 -110 -8 -12 -10
-11 -10 6 0 25 -34 64 -58 65 -142 11 -181 4 -295 -51 l-65 -31 -43 30 c-24
17 -60 33 -79 37 -41 8 -206 6 -235 -2 -58 -17 -568 -280 -582 -300 -13 -21
-18 -50 -14 -97 1 -22 56 -77 79 -78 22 -2 60 0 152 9 63 6 119 3 165 -11 27
-8 73 -39 111 -75 15 -15 116 -62 142 -67 181 -33 311 -26 471 24 l60 19 -25
-50 c-57 -113 -148 -255 -182 -286 -19 -17 -52 -37 -71 -43 -145 -43 -205 -47
-731 -54 -331 -5 -364 -6 -375 -16 -5 -6 -8 -68 -6 -126 2 -49 24 -56 205 -57
97 -1 161 -6 163 -12 2 -6 -15 -30 -37 -55 -48 -52 -63 -82 -61 -128 1 -46 13
-57 65 -60 54 -2 101 16 141 56 38 37 156 168 165 183 7 11 32 13 344 24 195
7 231 13 294 43 139 66 329 334 432 608 12 33 26 69 30 80 33 75 132 407 133
443 0 6 5 12 10 12 6 0 8 3 5 6 -3 3 1 33 9 67 22 94 23 98 28 162 5 56 9 198
19 659 l4 188 50 52 c177 181 230 253 211 288 -7 12 -6 18 1 18 7 0 8 6 1 19
-9 15 -20 18 -63 16 -57 -4 -82 -10 -166 -44 l-53 -21 6 128 c3 70 7 137 9
148 2 10 7 50 11 87 3 37 8 78 11 90 2 12 6 33 9 47 3 14 7 34 9 45 33 152 41
185 50 225 3 14 8 41 11 60 2 19 6 44 9 55 2 11 7 49 11 85 3 36 8 72 10 80
10 39 19 211 18 370 -1 195 -7 282 -28 390 -3 14 -8 41 -11 60 -11 66 -65 215
-105 289 -75 139 -190 263 -324 348 -68 43 -218 113 -243 113 -12 0 -23 4 -26
9 -5 7 -49 18 -146 36 -15 3 -59 18 -86 30 -57 26 -285 37 -1034 49 -194 4
-209 6 -305 46 -11 5 -54 18 -95 30 -41 12 -86 26 -100 31 -14 5 -34 10 -45
12 -11 2 -27 7 -35 10 -17 6 -462 117 -498 123 -13 3 -82 18 -155 35 -116 27
-151 31 -305 32 -96 1 -174 1 -175 1z m3331 -3043 c19 -55 -7 -100 -78 -136
-27 -14 -52 -25 -55 -24 -16 2 -131 -38 -217 -76 -54 -24 -98 -39 -98 -35 0
14 69 99 106 132 72 63 137 108 209 142 85 41 118 40 133 -3z m-189 -1693
c-11 -29 -26 -66 -33 -83 -8 -16 -24 -54 -36 -82 -12 -29 -26 -51 -30 -48 -4
2 -1 33 7 67 8 35 16 68 17 73 5 30 75 123 93 125 2 0 -6 -24 -18 -52z m-381
-21 c19 -13 14 -24 -15 -36 -69 -28 -157 -29 -218 -2 l-40 18 50 15 c52 15
201 18 223 5z"/>
<path d="M3367 3339 c-38 -4 -81 -12 -97 -18 -45 -15 -118 -73 -131 -104 -15
-35 -6 -130 15 -163 l16 -24 231 5 c269 6 336 -3 427 -59 74 -46 123 -62 195
-65 40 -2 66 3 83 14 22 14 24 21 20 65 -6 53 -42 135 -72 161 -34 29 -215
116 -299 144 -130 43 -258 58 -388 44z"/>
<path d="M2977 2992 c-15 -3 -18 -11 -13 -44 12 -84 110 -167 321 -272 185
-92 310 -137 430 -152 106 -13 539 -2 558 15 8 6 14 24 15 40 1 40 -43 89
-174 191 -119 93 -113 92 -254 76 -104 -12 -241 -8 -320 9 -14 3 -43 8 -65 11
-22 3 -51 9 -65 14 -14 5 -38 11 -55 14 -36 6 -76 17 -170 46 -38 12 -94 28
-124 36 -29 8 -56 16 -60 17 -3 2 -14 2 -24 -1z"/>
</g>
</svg>
